<?xml version="1.0" encoding="UTF-8" standalone="no"?>
<!-- Created with Inkscape (http://www.inkscape.org/) -->

<svg
   xmlns:dc="http://purl.org/dc/elements/1.1/"
   xmlns:cc="http://creativecommons.org/ns#"
   xmlns:rdf="http://www.w3.org/1999/02/22-rdf-syntax-ns#"
   xmlns:svg="http://www.w3.org/2000/svg"
   xmlns="http://www.w3.org/2000/svg"
   xmlns:sodipodi="http://sodipodi.sourceforge.net/DTD/sodipodi-0.dtd"
   xmlns:inkscape="http://www.inkscape.org/namespaces/inkscape"
   sodipodi:docname="dentable-set.svg"
   inkscape:version="0.92.5 (2060ec1f9f, 2020-04-08)"
   id="svg8"
   version="1.1"
   viewBox="0 0 150 30"
   height="30mm"
   width="150mm">
  <defs
     id="defs2">
    <clipPath
       clipPathUnits="userSpaceOnUse"
       id="clipPath5976">
      <g
         inkscape:label="Clip"
         id="use5978">
        <ellipse
           style="opacity:1;fill:none;stroke:#000000;stroke-width:0.16501224;stroke-opacity:1"
           ry="8.0718031"
           rx="19.199442"
           cy="272.49286"
           cx="25.55831"
           id="ellipse6013" />
        <circle
           r="3.5907733"
           cy="273.12845"
           cx="6.4144688"
           id="circle6015"
           style="opacity:1;fill:none;fill-opacity:1;stroke:#000000;stroke-width:0.2;stroke-miterlimit:4;stroke-dasharray:none;stroke-opacity:1" />
      </g>
    </clipPath>
  </defs>
  <sodipodi:namedview
     id="base"
     pagecolor="#ffffff"
     bordercolor="#666666"
     borderopacity="1.0"
     inkscape:pageopacity="0.0"
     inkscape:pageshadow="2"
     inkscape:zoom="3.6203867"
     inkscape:cx="294.18369"
     inkscape:cy="-29.084088"
     inkscape:document-units="mm"
     inkscape:current-layer="layer1"
     showgrid="false"
     units="mm"
     width="150mm"
     showguides="true"
     inkscape:guide-bbox="true"
     inkscape:window-width="2560"
     inkscape:window-height="1974"
     inkscape:window-x="0"
     inkscape:window-y="0"
     inkscape:window-maximized="1" />
  <metadata
     id="metadata5">
    <rdf:RDF>
      <cc:Work
         rdf:about="">
        <dc:format>image/svg+xml</dc:format>
        <dc:type
           rdf:resource="http://purl.org/dc/dcmitype/StillImage" />
        <dc:title></dc:title>
      </cc:Work>
    </rdf:RDF>
  </metadata>
  <g
     inkscape:label="Layer 1"
     inkscape:groupmode="layer"
     id="layer1"
     transform="translate(0,-267)">
    <circle
       style="opacity:1;fill:#000000;fill-opacity:1;stroke:none;stroke-width:0.279578;stroke-opacity:0.66436002"
       id="path4554"
       cx="14.008277"
       cy="283.71454"
       r="0.29954785"
       inkscape:transform-center-x="-1.6300223"
       inkscape:transform-center-y="-0.86225857" />
    <ellipse
       style="opacity:1;fill:#000000;stroke:#000000;stroke-width:0.16501224;stroke-opacity:1;fill-opacity:0.08650519"
       ry="8.0718031"
       rx="19.199442"
       cy="283.06302"
       cx="33.109337"
       id="path3725" />
    <circle
       r="3.5907733"
       cy="283.69861"
       cx="13.965498"
       id="path4566"
       style="opacity:1;fill:none;fill-opacity:1;stroke:#000000;stroke-width:0.2;stroke-miterlimit:4;stroke-dasharray:none;stroke-opacity:1" />
    <g
       id="g5213"
       transform="translate(-11.773073,207.08006)">
      <g
         word-spacing="normal"
         letter-spacing="normal"
         font-size-adjust="none"
         font-stretch="normal"
         font-weight="normal"
         font-variant="normal"
         font-style="normal"
         stroke-miterlimit="10.433"
         xml:space="preserve"
         transform="matrix(0.07142857,0,0,-0.07142857,-12.5,112.5)"
         id="content"
         style="font-style:normal;font-variant:normal;font-weight:normal;font-stretch:normal;letter-spacing:normal;word-spacing:normal;text-anchor:start;fill:none;fill-opacity:1;fill-rule:evenodd;stroke:#000000;stroke-linecap:butt;stroke-linejoin:miter;stroke-miterlimit:10.43299961;stroke-dasharray:none;stroke-dashoffset:0;stroke-opacity:1"><path
           id="path5202"
           d="m 463.49,410.09 -0.05,-0.18 -0.04,-0.17 -0.05,-0.16 -0.04,-0.15 -0.04,-0.15 -0.05,-0.13 -0.05,-0.13 -0.05,-0.12 -0.05,-0.11 -0.06,-0.11 -0.07,-0.1 -0.07,-0.09 -0.07,-0.09 -0.09,-0.07 -0.09,-0.08 -0.11,-0.06 -0.11,-0.07 -0.13,-0.05 -0.13,-0.05 -0.15,-0.05 -0.16,-0.04 -0.09,-0.02 -0.09,-0.01 -0.09,-0.02 -0.1,-0.02 -0.1,-0.01 -0.1,-0.01 -0.11,-0.01 -0.12,-0.02 -0.11,-0.01 -0.13,-0.01 h -0.12 l -0.13,-0.01 -0.14,-0.01 h -0.14 l -0.14,-0.01 h -0.15 l -0.16,-0.01 h -0.16 -0.16 -0.17 -0.18 -0.18 c -0.85,0 -1.35,0 -1.35,-1 0,-0.55 0.46,-0.55 1.35,-0.55 h 17.78 c 7.87,0 13.75,5.87 13.75,10.76 0,3.58 -2.89,6.47 -7.72,7.02 5.19,0.95 10.42,4.64 10.42,9.38 0,3.68 -3.3,6.87 -9.28,6.87 l -0.69,-1.55 c 4.38,0 5.42,-2.93 5.42,-5.12 0,-4.39 -4.28,-9.13 -10.35,-9.13 h -7.27 l -0.3,-1.09 h 9.41 c 4.78,0 5.73,-3.69 5.73,-5.83 0,-4.94 -4.43,-9.76 -10.31,-9.76 h -6.78 c -0.69,0 -0.8,0 -1.09,0.04 -0.5,0.05 -0.64,0.1 -0.64,0.5 0,0.14 0,0.25 0.25,1.14 l 3.43,13.91 0.3,1.09 3.08,12.36 c 0.45,1.74 0.54,1.89 2.7,1.89 h 6.42 l 0.69,1.55 h -16.73 c -0.94,0 -1.44,0 -1.44,-1 0,-0.55 0.44,-0.55 1.39,-0.55 0.09,0 1.05,0 1.89,-0.09 0.89,-0.11 1.34,-0.16 1.34,-0.8 0,-0.2 -0.04,-0.36 -0.2,-0.95 z"
           inkscape:connector-curvature="0"
           style="fill:#000000;stroke-width:0" /><path
           id="path5204"
           d="m 499.1,406.53 0.13,-0.05 0.12,-0.04 0.12,-0.04 0.12,-0.04 0.11,-0.04 0.12,-0.03 0.12,-0.03 0.11,-0.03 0.11,-0.03 0.11,-0.02 0.22,-0.04 0.21,-0.04 0.21,-0.02 0.21,-0.02 0.2,-0.02 0.2,-0.01 0.2,-0.01 h 0.2 l 0.19,-0.01 h 0.38 v 0.97 c -0.53,0 -1.23,0 -1.86,0.14 v 0 c 0.39,0.11 1.08,0.28 2.13,0.28 0.76,0 0.95,-0.03 1.64,-0.17 -0.52,-0.2 -0.63,-0.25 -1.91,-0.25 v -0.97 c 1.11,0 3.16,0 3.16,1.28 0,0.96 -1.31,1.08 -2.81,1.08 -0.49,0 -1.99,0 -3.71,-0.69 -0.79,0.38 -1.31,1.05 -1.31,1.82 0,1.87 3.38,3.06 6.89,3.06 0.56,0 2.06,0 3.63,-0.97 0.21,-0.14 0.42,-0.31 0.7,-0.31 0.48,0 1.11,0.51 1.11,1.11 0,0.7 -1.14,1.18 -1.81,1.47 -1.5,0.62 -2.72,0.62 -3.24,0.62 -4.25,0 -8.47,-2.23 -8.47,-5.02 0,-1.43 1.33,-2.34 1.36,-2.37 -1.29,-0.77 -3.03,-2.3 -3.03,-4.5 0,-2.53 2.5,-4.53 6.38,-4.53 5.29,0 7.17,3.14 7.17,3.7 0,0.24 -0.21,0.45 -0.49,0.45 -0.2,0 -0.31,-0.14 -0.42,-0.28 -0.86,-1.36 -2.01,-1.95 -5.7,-1.95 -0.88,0 -2.52,0 -3.77,0.48 -1.39,0.54 -1.98,1.47 -1.98,2.35 0,0.8 0.59,2.5 2.95,3.72 z"
           inkscape:connector-curvature="0"
           style="fill:#000000;stroke-width:0" /><path
           id="path5206"
           d="m 531.16,394.25 v 0.02 0.03 0.01 0.02 0.01 l -0.01,0.02 v 0.01 l -0.01,0.02 -0.01,0.02 -0.01,0.02 -0.01,0.02 -0.02,0.03 -0.01,0.02 -0.02,0.03 -0.02,0.03 -0.03,0.03 -0.02,0.03 -0.03,0.04 -0.02,0.02 -0.01,0.02 -0.02,0.02 -0.02,0.02 -0.02,0.02 -0.02,0.03 -0.02,0.02 -0.02,0.02 -0.02,0.03 -0.03,0.02 -0.02,0.03 -0.03,0.03 -0.03,0.03 -0.02,0.03 -0.03,0.03 -0.03,0.03 -0.03,0.03 -0.03,0.03 -0.04,0.04 -0.03,0.03 -0.04,0.04 -0.03,0.03 -0.04,0.04 -0.04,0.04 c -6.22,6.28 -7.81,15.69 -7.81,23.31 0,8.67 1.89,17.35 8.01,23.56 0.64,0.61 0.64,0.71 0.64,0.86 0,0.35 -0.18,0.49 -0.48,0.49 -0.5,0 -4.98,-3.38 -7.92,-9.7 -2.55,-5.49 -3.14,-11.02 -3.14,-15.21 0,-3.89 0.54,-9.9 3.28,-15.54 2.98,-6.13 7.28,-9.36 7.78,-9.36 0.3,0 0.48,0.14 0.48,0.5 z"
           inkscape:connector-curvature="0"
           style="fill:#000000;stroke-width:0" /><path
           id="path5208"
           d="m 551.23,418.45 5.83,6.48 c 0.66,0.71 0.95,1.05 5.09,1.05 v 2.34 c -1.75,-0.11 -4.34,-0.15 -4.59,-0.15 -1.25,0 -3.74,0.11 -5.13,0.15 v -2.34 c 0.69,0 1.3,-0.11 1.89,-0.45 -0.2,-0.3 -0.2,-0.39 -0.4,-0.6 l -4.17,-4.68 -4.9,5.73 h 2 v 2.34 c -1.29,-0.04 -4.43,-0.15 -6.03,-0.15 -1.59,0 -3.84,0.11 -5.48,0.15 v -2.34 h 3.53 l 7.78,-9.17 -6.53,-7.33 c -0.84,-0.94 -2.64,-0.94 -5.03,-0.94 v -2.34 c 1.75,0.09 4.34,0.16 4.58,0.16 1.25,0 4.14,-0.11 5.14,-0.16 v 2.34 c -0.89,0 -1.84,0.25 -1.84,0.55 0,0.05 0,0.09 0.34,0.5 l 4.84,5.42 5.47,-6.47 h -1.94 v -2.34 c 1.3,0.05 4.33,0.16 5.99,0.16 1.59,0 3.83,-0.11 5.47,-0.16 v 2.34 h -3.54 z"
           inkscape:connector-curvature="0"
           style="fill:#000000;stroke-width:0" /><path
           id="path5210"
           d="m 578.62,418.65 v 0.37 0.39 l -0.01,0.39 -0.01,0.41 -0.04,0.84 -0.06,0.88 -0.09,0.92 -0.1,0.95 -0.14,0.97 -0.16,1.01 -0.2,1.02 -0.23,1.03 -0.26,1.05 -0.31,1.06 -0.35,1.07 -0.39,1.07 -0.21,0.53 -0.23,0.53 -0.24,0.53 -0.25,0.53 c -2.98,6.12 -7.26,9.36 -7.76,9.36 -0.3,0 -0.5,-0.19 -0.5,-0.49 0,-0.15 0,-0.25 0.94,-1.15 4.89,-4.92 7.73,-12.85 7.73,-23.27 0,-8.51 -1.84,-17.28 -8.03,-23.56 -0.64,-0.59 -0.64,-0.7 -0.64,-0.84 0,-0.3 0.2,-0.5 0.5,-0.5 0.5,0 4.97,3.39 7.92,9.71 2.53,5.47 3.12,11 3.12,15.19 z"
           inkscape:connector-curvature="0"
           style="fill:#000000;stroke-width:0" /></g>    </g>
    <g
       id="g5346"
       transform="translate(11.499724,190.18657)">
      <g
         word-spacing="normal"
         letter-spacing="normal"
         font-size-adjust="none"
         font-stretch="normal"
         font-weight="normal"
         font-variant="normal"
         font-style="normal"
         stroke-miterlimit="10.433"
         xml:space="preserve"
         transform="matrix(0.07142857,0,0,-0.07142857,-12.5,112.5)"
         id="g5344"
         style="font-style:normal;font-variant:normal;font-weight:normal;font-stretch:normal;letter-spacing:normal;word-spacing:normal;text-anchor:start;fill:none;fill-opacity:1;fill-rule:evenodd;stroke:#000000;stroke-linecap:butt;stroke-linejoin:miter;stroke-miterlimit:10.43299961;stroke-dasharray:none;stroke-dashoffset:0;stroke-opacity:1"><path
           id="path5342"
           d="m 463.44,410.09 -0.04,-0.18 -0.05,-0.17 -0.04,-0.16 -0.05,-0.15 -0.04,-0.15 -0.05,-0.13 -0.04,-0.13 -0.05,-0.12 -0.06,-0.11 -0.06,-0.11 -0.06,-0.1 -0.07,-0.09 -0.08,-0.09 -0.09,-0.07 -0.09,-0.08 -0.11,-0.06 -0.11,-0.07 -0.12,-0.05 -0.14,-0.05 -0.15,-0.05 -0.16,-0.04 -0.09,-0.02 -0.08,-0.01 -0.1,-0.02 -0.1,-0.02 -0.1,-0.01 -0.1,-0.01 -0.11,-0.01 -0.11,-0.02 -0.12,-0.01 -0.12,-0.01 h -0.13 l -0.13,-0.01 -0.13,-0.01 h -0.15 l -0.14,-0.01 h -0.15 l -0.16,-0.01 h -0.16 -0.16 -0.17 -0.18 -0.18 c -0.84,0 -1.39,0 -1.39,-0.96 0,-0.59 0.44,-0.59 1.39,-0.59 h 16.48 l -0.89,1.55 h -5.62 c -0.7,0 -0.8,0 -1.11,0.04 -0.48,0.05 -0.64,0.1 -0.64,0.5 0,0.14 0,0.25 0.25,1.14 l 6.83,27.36 c 0.43,1.74 0.54,1.89 2.68,1.89 h 5.33 c 4.89,0 9.02,-2.64 9.02,-9.22 0,-2.43 -1,-10.6 -5.24,-16.09 -1.43,-1.84 -5.37,-5.62 -11.5,-5.62 l 0.89,-1.55 c 10.36,0 20.19,10.51 20.19,21.42 0,7.03 -4.23,12.61 -11.72,12.61 h -16.73 c -0.95,0 -1.5,0 -1.5,-0.95 0,-0.6 0.45,-0.6 1.45,-0.6 0.64,0 1.55,-0.04 2.14,-0.09 0.8,-0.11 1.1,-0.25 1.1,-0.8 0,-0.2 -0.05,-0.36 -0.21,-0.95 z"
           inkscape:connector-curvature="0"
           style="fill:#000000;stroke-width:0" /></g>    </g>
    <g
       id="g5629"
       transform="translate(50.997701,189.92738)">
      <g
         word-spacing="normal"
         letter-spacing="normal"
         font-size-adjust="none"
         font-stretch="normal"
         font-weight="normal"
         font-variant="normal"
         font-style="normal"
         stroke-miterlimit="10.433"
         xml:space="preserve"
         transform="matrix(0.07142857,0,0,-0.07142857,-12.5,112.5)"
         id="g5627"
         style="font-style:normal;font-variant:normal;font-weight:normal;font-stretch:normal;letter-spacing:normal;word-spacing:normal;text-anchor:start;fill:none;fill-opacity:1;fill-rule:evenodd;stroke:#000000;stroke-linecap:butt;stroke-linejoin:miter;stroke-miterlimit:10.43299961;stroke-dasharray:none;stroke-dashoffset:0;stroke-opacity:1"><path
           id="path5613"
           d="m 463.44,410.09 -0.04,-0.18 -0.05,-0.17 -0.04,-0.16 -0.05,-0.15 -0.04,-0.15 -0.05,-0.13 -0.04,-0.13 -0.05,-0.12 -0.06,-0.11 -0.06,-0.11 -0.06,-0.1 -0.07,-0.09 -0.08,-0.09 -0.09,-0.07 -0.09,-0.08 -0.11,-0.06 -0.11,-0.07 -0.12,-0.05 -0.14,-0.05 -0.15,-0.05 -0.16,-0.04 -0.09,-0.02 -0.08,-0.01 -0.1,-0.02 -0.1,-0.02 -0.1,-0.01 -0.1,-0.01 -0.11,-0.01 -0.11,-0.02 -0.12,-0.01 -0.12,-0.01 h -0.13 l -0.13,-0.01 -0.13,-0.01 h -0.15 l -0.14,-0.01 h -0.15 l -0.16,-0.01 h -0.16 -0.16 -0.17 -0.18 -0.18 c -0.84,0 -1.39,0 -1.39,-0.96 0,-0.59 0.44,-0.59 1.39,-0.59 h 16.48 l -0.89,1.55 h -5.62 c -0.7,0 -0.8,0 -1.11,0.04 -0.48,0.05 -0.64,0.1 -0.64,0.5 0,0.14 0,0.25 0.25,1.14 l 6.83,27.36 c 0.43,1.74 0.54,1.89 2.68,1.89 h 5.33 c 4.89,0 9.02,-2.64 9.02,-9.22 0,-2.43 -1,-10.6 -5.24,-16.09 -1.43,-1.84 -5.37,-5.62 -11.5,-5.62 l 0.89,-1.55 c 10.36,0 20.19,10.51 20.19,21.42 0,7.03 -4.23,12.61 -11.72,12.61 h -16.73 c -0.95,0 -1.5,0 -1.5,-0.95 0,-0.6 0.45,-0.6 1.45,-0.6 0.64,0 1.55,-0.04 2.14,-0.09 0.8,-0.11 1.1,-0.25 1.1,-0.8 0,-0.2 -0.05,-0.36 -0.21,-0.95 z"
           inkscape:connector-curvature="0"
           style="fill:#000000;stroke-width:0" /><path
           id="path5615"
           d="m 529.26,394.93 0.05,-0.12 0.02,-0.06 0.03,-0.06 0.02,-0.06 0.03,-0.06 0.02,-0.06 0.03,-0.05 0.02,-0.05 0.03,-0.06 0.03,-0.05 0.02,-0.04 0.03,-0.05 0.03,-0.04 0.03,-0.05 0.04,-0.04 0.03,-0.04 0.03,-0.03 0.04,-0.04 0.04,-0.03 0.03,-0.03 0.04,-0.03 0.05,-0.02 0.04,-0.03 0.04,-0.02 0.05,-0.01 0.05,-0.02 0.05,-0.01 0.05,-0.01 0.06,-0.01 h 0.05 0.06 c 0.55,0 1,0.45 1,1 0,0.09 0,0.18 -0.25,0.79 l -17.05,46.83 c -0.29,0.84 -0.43,1.19 -1.09,1.19 -0.54,0 -1,-0.44 -1,-0.99 0,-0.11 0,-0.2 0.25,-0.79 z"
           inkscape:connector-curvature="0"
           style="fill:#000000;stroke-width:0" /><path
           id="path5617"
           d="m 553.24,410.09 -0.04,-0.18 -0.05,-0.17 -0.04,-0.16 -0.04,-0.15 -0.05,-0.15 -0.04,-0.13 -0.05,-0.13 -0.05,-0.12 -0.06,-0.11 -0.06,-0.11 -0.06,-0.1 -0.07,-0.09 -0.08,-0.09 -0.09,-0.07 -0.09,-0.08 -0.1,-0.06 -0.12,-0.07 -0.12,-0.05 -0.14,-0.05 -0.15,-0.05 -0.16,-0.04 -0.08,-0.02 -0.09,-0.01 -0.1,-0.02 -0.09,-0.02 -0.11,-0.01 -0.1,-0.01 -0.11,-0.01 -0.11,-0.02 -0.12,-0.01 -0.12,-0.01 h -0.13 l -0.13,-0.01 -0.13,-0.01 h -0.14 l -0.15,-0.01 h -0.15 l -0.15,-0.01 h -0.16 -0.17 -0.17 -0.18 -0.18 c -0.84,0 -1.34,0 -1.34,-1 0,-0.55 0.45,-0.55 1.34,-0.55 h 17.78 c 7.88,0 13.75,5.87 13.75,10.76 0,3.58 -2.89,6.47 -7.72,7.02 5.19,0.95 10.43,4.64 10.43,9.38 0,3.68 -3.3,6.87 -9.29,6.87 l -0.68,-1.55 c 4.37,0 5.42,-2.93 5.42,-5.12 0,-4.39 -4.28,-9.13 -10.36,-9.13 h -7.27 l -0.29,-1.09 h 9.4 c 4.78,0 5.74,-3.69 5.74,-5.83 0,-4.94 -4.44,-9.76 -10.32,-9.76 h -6.78 c -0.68,0 -0.79,0 -1.09,0.04 -0.5,0.05 -0.64,0.1 -0.64,0.5 0,0.14 0,0.25 0.25,1.14 l 3.44,13.91 0.29,1.09 3.08,12.36 c 0.45,1.74 0.55,1.89 2.7,1.89 h 6.43 l 0.68,1.55 h -16.73 c -0.94,0 -1.44,0 -1.44,-1 0,-0.55 0.44,-0.55 1.39,-0.55 0.1,0 1.05,0 1.89,-0.09 0.89,-0.11 1.35,-0.16 1.35,-0.8 0,-0.2 -0.05,-0.36 -0.21,-0.95 z"
           inkscape:connector-curvature="0"
           style="fill:#000000;stroke-width:0" /><path
           id="path5619"
           d="m 588.86,406.53 0.12,-0.05 0.12,-0.04 0.13,-0.04 0.11,-0.04 0.12,-0.04 0.12,-0.03 0.11,-0.03 0.12,-0.03 0.11,-0.03 0.11,-0.02 0.22,-0.04 0.21,-0.04 0.21,-0.02 0.21,-0.02 0.2,-0.02 0.2,-0.01 0.2,-0.01 h 0.19 l 0.2,-0.01 h 0.38 v 0.97 c -0.53,0 -1.23,0 -1.86,0.14 v 0 c 0.39,0.11 1.08,0.28 2.13,0.28 0.76,0 0.95,-0.03 1.64,-0.17 -0.52,-0.2 -0.63,-0.25 -1.91,-0.25 v -0.97 c 1.11,0 3.16,0 3.16,1.28 0,0.96 -1.32,1.08 -2.82,1.08 -0.48,0 -1.98,0 -3.7,-0.69 -0.8,0.38 -1.31,1.05 -1.31,1.82 0,1.87 3.37,3.06 6.89,3.06 0.56,0 2.06,0 3.62,-0.97 0.22,-0.14 0.43,-0.31 0.71,-0.31 0.48,0 1.11,0.51 1.11,1.11 0,0.7 -1.14,1.18 -1.82,1.47 -1.5,0.62 -2.71,0.62 -3.23,0.62 -4.25,0 -8.47,-2.23 -8.47,-5.02 0,-1.43 1.33,-2.34 1.36,-2.37 -1.3,-0.77 -3.03,-2.3 -3.03,-4.5 0,-2.53 2.5,-4.53 6.37,-4.53 5.3,0 7.18,3.14 7.18,3.7 0,0.24 -0.21,0.45 -0.49,0.45 -0.2,0 -0.31,-0.14 -0.42,-0.28 -0.86,-1.36 -2.02,-1.95 -5.7,-1.95 -0.88,0 -2.52,0 -3.77,0.48 -1.39,0.54 -1.98,1.47 -1.98,2.35 0,0.8 0.59,2.5 2.95,3.72 z"
           inkscape:connector-curvature="0"
           style="fill:#000000;stroke-width:0" /><path
           id="path5621"
           d="m 620.8,394.25 v 0.02 0.03 0.01 0.02 0.01 l -0.01,0.02 v 0.01 l -0.01,0.02 -0.01,0.02 -0.01,0.02 -0.01,0.02 -0.02,0.03 -0.01,0.02 -0.02,0.03 -0.02,0.03 -0.03,0.03 -0.02,0.03 -0.03,0.04 -0.02,0.02 -0.01,0.02 -0.02,0.02 -0.02,0.02 -0.02,0.02 -0.02,0.03 -0.02,0.02 -0.02,0.02 -0.02,0.03 -0.03,0.02 -0.02,0.03 -0.03,0.03 -0.02,0.03 -0.03,0.03 -0.03,0.03 -0.03,0.03 -0.03,0.03 -0.03,0.03 -0.04,0.04 -0.03,0.03 -0.04,0.04 -0.03,0.03 -0.04,0.04 -0.04,0.04 c -6.22,6.28 -7.81,15.69 -7.81,23.31 0,8.67 1.89,17.35 8.01,23.56 0.64,0.61 0.64,0.71 0.64,0.86 0,0.35 -0.18,0.49 -0.48,0.49 -0.5,0 -4.98,-3.38 -7.92,-9.7 -2.55,-5.49 -3.14,-11.02 -3.14,-15.21 0,-3.89 0.54,-9.9 3.28,-15.54 2.98,-6.13 7.28,-9.36 7.78,-9.36 0.3,0 0.48,0.14 0.48,0.5 z"
           inkscape:connector-curvature="0"
           style="fill:#000000;stroke-width:0" /><path
           id="path5623"
           d="m 640.87,418.45 5.83,6.48 c 0.65,0.71 0.95,1.05 5.09,1.05 v 2.34 c -1.75,-0.11 -4.34,-0.15 -4.59,-0.15 -1.25,0 -3.73,0.11 -5.13,0.15 v -2.34 c 0.69,0 1.3,-0.11 1.9,-0.45 -0.21,-0.3 -0.21,-0.39 -0.41,-0.6 l -4.17,-4.68 -4.89,5.73 h 2 v 2.34 c -1.3,-0.04 -4.44,-0.15 -6.03,-0.15 -1.6,0 -3.85,0.11 -5.49,0.15 v -2.34 h 3.53 l 7.78,-9.17 -6.53,-7.33 c -0.84,-0.94 -2.64,-0.94 -5.03,-0.94 v -2.34 c 1.75,0.09 4.34,0.16 4.58,0.16 1.25,0 4.14,-0.11 5.14,-0.16 v 2.34 c -0.89,0 -1.85,0.25 -1.85,0.55 0,0.05 0,0.09 0.35,0.5 l 4.84,5.42 5.47,-6.47 h -1.94 v -2.34 c 1.3,0.05 4.33,0.16 5.99,0.16 1.59,0 3.83,-0.11 5.47,-0.16 v 2.34 h -3.53 z"
           inkscape:connector-curvature="0"
           style="fill:#000000;stroke-width:0" /><path
           id="path5625"
           d="m 668.27,418.65 -0.01,0.37 v 0.39 l -0.01,0.39 -0.01,0.41 -0.04,0.84 -0.06,0.88 -0.08,0.92 -0.11,0.95 -0.14,0.97 -0.16,1.01 -0.2,1.02 -0.23,1.03 -0.26,1.05 -0.31,1.06 -0.35,1.07 -0.39,1.07 -0.21,0.53 -0.23,0.53 -0.24,0.53 -0.25,0.53 c -2.98,6.12 -7.26,9.36 -7.76,9.36 -0.3,0 -0.5,-0.19 -0.5,-0.49 0,-0.15 0,-0.25 0.94,-1.15 4.89,-4.92 7.73,-12.85 7.73,-23.27 0,-8.51 -1.84,-17.28 -8.03,-23.56 -0.64,-0.59 -0.64,-0.7 -0.64,-0.84 0,-0.3 0.2,-0.5 0.5,-0.5 0.5,0 4.97,3.39 7.92,9.71 2.53,5.47 3.13,11 3.13,15.19 z"
           inkscape:connector-curvature="0"
           style="fill:#000000;stroke-width:0" /></g>    </g>
    <g
       id="g5948"
       transform="translate(88.209093,189.8214)">
      <g
         word-spacing="normal"
         letter-spacing="normal"
         font-size-adjust="none"
         font-stretch="normal"
         font-weight="normal"
         font-variant="normal"
         font-style="normal"
         stroke-miterlimit="10.433"
         xml:space="preserve"
         transform="matrix(0.07142857,0,0,-0.07142857,-12.5,112.5)"
         id="g5946"
         style="font-style:normal;font-variant:normal;font-weight:normal;font-stretch:normal;letter-spacing:normal;word-spacing:normal;text-anchor:start;fill:none;fill-opacity:1;fill-rule:evenodd;stroke:#000000;stroke-linecap:butt;stroke-linejoin:miter;stroke-miterlimit:10.43299961;stroke-dasharray:none;stroke-dashoffset:0;stroke-opacity:1"><polyline
           id="polyline5918"
           points="456,434 556.32,434 556.32,436.04 456,436.04 "
           style="fill:#000000;fill-rule:nonzero;stroke-width:0" /><path
           id="path5920"
           d="m 461.35,417.06 v 0.38 l 0.01,0.36 0.01,0.36 0.02,0.35 0.03,0.34 0.03,0.34 0.04,0.32 0.04,0.32 0.05,0.31 0.05,0.3 0.05,0.29 0.06,0.29 0.14,0.55 0.15,0.51 0.17,0.49 0.18,0.46 0.19,0.43 0.21,0.4 0.22,0.38 0.23,0.35 0.24,0.32 0.25,0.3 0.26,0.28 0.27,0.26 0.27,0.23 0.27,0.21 0.28,0.19 0.28,0.16 0.28,0.15 0.29,0.13 0.28,0.12 0.28,0.09 0.28,0.08 0.27,0.06 0.28,0.05 0.26,0.03 0.26,0.02 0.25,0.01 c 0.44,0 3.58,-0.05 5.33,-1.85 -2.05,-0.15 -2.34,-1.64 -2.34,-2.29 0,-1.3 0.89,-2.3 2.29,-2.3 1.28,0 2.28,0.86 2.28,2.34 0,3.39 -3.78,5.33 -7.62,5.33 -6.22,0 -10.81,-5.37 -10.81,-11.55 0,-6.37 4.93,-11.31 10.72,-11.31 6.67,0 8.26,5.99 8.26,6.47 0,0.5 -0.5,0.5 -0.64,0.5 -0.45,0 -0.55,-0.19 -0.66,-0.5 -1.43,-4.62 -4.67,-5.22 -6.51,-5.22 -2.64,0 -7.03,2.14 -7.03,10.16 z"
           inkscape:connector-curvature="0"
           style="fill:#000000;stroke-width:0" /><path
           id="path5922"
           d="m 501.07,416.86 -0.02,0.59 -0.04,0.59 -0.07,0.58 -0.1,0.57 -0.12,0.56 -0.15,0.55 -0.18,0.54 -0.2,0.53 -0.22,0.51 -0.24,0.5 -0.27,0.49 -0.29,0.47 -0.31,0.46 -0.33,0.44 -0.34,0.43 -0.37,0.4 -0.38,0.39 -0.4,0.37 -0.42,0.35 -0.43,0.32 -0.45,0.31 -0.46,0.28 -0.48,0.26 -0.48,0.24 -0.5,0.21 -0.51,0.18 -0.52,0.16 -0.53,0.13 -0.54,0.11 -0.55,0.07 -0.56,0.05 -0.56,0.01 -0.05,-1.09 c 2.19,0 4.33,-1.1 5.63,-3.24 1.3,-2.14 1.3,-5.03 1.3,-6.92 0,-1.8 0,-4.48 -1.1,-6.67 -1.09,-2.25 -3.28,-3.69 -5.78,-3.69 v 0 c -2.14,0 -4.33,1.05 -5.67,3.33 -1.25,2.2 -1.25,5.23 -1.25,7.03 0,1.94 0,4.63 1.19,6.83 1.36,2.28 3.68,3.33 5.68,3.33 l 0.05,1.09 c -6.22,0 -11.06,-5.42 -11.06,-11.65 0,-6.43 5.19,-11.21 11.01,-11.21 6.04,0 11.07,4.88 11.07,11.21 z"
           inkscape:connector-curvature="0"
           style="fill:#000000;stroke-width:0" /><path
           id="path5924"
           d="m 508.04,423.34 v -13.36 c 0,-2.23 -0.55,-2.23 -3.89,-2.23 v -1.55 c 1.75,0.05 4.28,0.16 5.62,0.16 1.3,0 3.89,-0.11 5.58,-0.16 v 1.55 c -3.33,0 -3.87,0 -3.87,2.23 v 9.17 c 0,5.19 3.53,7.97 6.72,7.97 3.14,0 3.68,-2.69 3.68,-5.53 v -11.61 c 0,-2.23 -0.54,-2.23 -3.89,-2.23 v -1.55 c 1.75,0.05 4.3,0.16 5.64,0.16 1.3,0 3.88,-0.11 5.58,-0.16 v 1.55 c -2.59,0 -3.84,0 -3.89,1.5 v 9.51 c 0,4.28 0,5.83 -1.55,7.61 -0.68,0.86 -2.34,1.84 -5.22,1.84 -3.64,0 -5.98,-2.14 -7.37,-5.21 v 5.21 l -7.03,-0.54 v -1.55 c 3.48,0 3.89,-0.34 3.89,-2.78 z"
           inkscape:connector-curvature="0"
           style="fill:#000000;stroke-width:0" /><path
           id="path5926"
           d="m 549.55,422.79 0.04,0.11 0.05,0.12 0.05,0.12 0.05,0.12 0.06,0.13 0.06,0.13 0.07,0.13 0.07,0.14 0.07,0.13 0.08,0.14 0.09,0.14 0.09,0.14 0.1,0.13 0.11,0.14 0.12,0.13 0.12,0.13 0.13,0.12 0.14,0.13 0.15,0.11 0.16,0.12 0.17,0.11 0.18,0.1 0.19,0.09 0.2,0.09 0.21,0.08 0.23,0.07 0.23,0.07 0.25,0.05 0.26,0.05 0.14,0.01 0.14,0.02 0.14,0.01 0.14,0.01 0.15,0.01 h 0.16 v 1.55 c -1.16,-0.1 -2.6,-0.14 -3.74,-0.14 -1.2,0 -3.5,0.09 -4.34,0.14 v -1.55 c 1.84,-0.05 2.39,-1.19 2.39,-2.14 0,-0.44 -0.1,-0.64 -0.3,-1.19 l -5.08,-12.7 -5.58,13.89 c -0.29,0.66 -0.29,0.75 -0.29,0.86 0,1.28 1.94,1.28 2.82,1.28 v 1.55 c -1.48,-0.05 -4.28,-0.14 -5.42,-0.14 -1.34,0 -3.34,0.04 -4.83,0.14 v -1.55 c 3.13,0 3.33,-0.3 3.99,-1.84 l 7.17,-17.67 c 0.3,-0.71 0.39,-0.96 1.05,-0.96 0.64,0 0.84,0.46 1.04,0.96 z"
           inkscape:connector-curvature="0"
           style="fill:#000000;stroke-width:0" /><path
           id="path5928"
           d="m 572.32,394.25 v 0.02 l -0.01,0.03 v 0.01 0.02 0.01 l -0.01,0.02 v 0.01 l -0.01,0.02 -0.01,0.02 -0.01,0.02 -0.01,0.02 -0.01,0.03 -0.02,0.02 -0.02,0.03 -0.02,0.03 -0.02,0.03 -0.03,0.03 -0.03,0.04 -0.02,0.02 -0.01,0.02 -0.02,0.02 -0.02,0.02 -0.02,0.02 -0.02,0.03 -0.02,0.02 -0.02,0.02 -0.02,0.03 -0.03,0.02 -0.02,0.03 -0.03,0.03 -0.02,0.03 -0.03,0.03 -0.03,0.03 -0.03,0.03 -0.03,0.03 -0.03,0.03 -0.03,0.04 -0.04,0.03 -0.03,0.04 -0.04,0.03 -0.04,0.04 -0.04,0.04 c -6.22,6.28 -7.81,15.69 -7.81,23.31 0,8.67 1.89,17.35 8.02,23.56 0.64,0.61 0.64,0.71 0.64,0.86 0,0.35 -0.19,0.49 -0.49,0.49 -0.5,0 -4.98,-3.38 -7.92,-9.7 -2.55,-5.49 -3.14,-11.02 -3.14,-15.21 0,-3.89 0.55,-9.9 3.28,-15.54 2.98,-6.13 7.28,-9.36 7.78,-9.36 0.3,0 0.49,0.14 0.49,0.5 z"
           inkscape:connector-curvature="0"
           style="fill:#000000;stroke-width:0" /><path
           id="path5930"
           d="m 583.07,410.09 -0.05,-0.18 -0.04,-0.17 -0.04,-0.16 -0.05,-0.15 -0.04,-0.15 -0.05,-0.13 -0.04,-0.13 -0.06,-0.12 -0.05,-0.11 -0.06,-0.11 -0.06,-0.1 -0.08,-0.09 -0.07,-0.09 -0.09,-0.07 -0.09,-0.08 -0.11,-0.06 -0.11,-0.07 -0.12,-0.05 -0.14,-0.05 -0.15,-0.05 -0.16,-0.04 -0.09,-0.02 -0.09,-0.01 -0.09,-0.02 -0.1,-0.02 -0.1,-0.01 -0.1,-0.01 -0.11,-0.01 -0.11,-0.02 -0.12,-0.01 -0.12,-0.01 h -0.13 l -0.13,-0.01 -0.14,-0.01 h -0.14 l -0.14,-0.01 h -0.15 l -0.16,-0.01 h -0.16 -0.16 -0.17 -0.18 -0.18 c -0.84,0 -1.39,0 -1.39,-0.96 0,-0.59 0.44,-0.59 1.39,-0.59 h 16.48 l -0.89,1.55 h -5.62 c -0.71,0 -0.8,0 -1.11,0.04 -0.49,0.05 -0.64,0.1 -0.64,0.5 0,0.14 0,0.25 0.25,1.14 l 6.83,27.36 c 0.43,1.74 0.54,1.89 2.68,1.89 h 5.33 c 4.89,0 9.02,-2.64 9.02,-9.22 0,-2.43 -1,-10.6 -5.24,-16.09 -1.43,-1.84 -5.37,-5.62 -11.5,-5.62 l 0.89,-1.55 c 10.36,0 20.19,10.51 20.19,21.42 0,7.03 -4.23,12.61 -11.72,12.61 h -16.73 c -0.96,0 -1.5,0 -1.5,-0.95 0,-0.6 0.45,-0.6 1.45,-0.6 0.64,0 1.55,-0.04 2.14,-0.09 0.8,-0.11 1.1,-0.25 1.1,-0.8 0,-0.2 -0.05,-0.36 -0.21,-0.95 z"
           inkscape:connector-curvature="0"
           style="fill:#000000;stroke-width:0" /><path
           id="path5932"
           d="m 648.89,394.93 0.05,-0.12 0.02,-0.06 0.03,-0.06 0.02,-0.06 0.02,-0.06 0.03,-0.06 0.02,-0.05 0.03,-0.05 0.03,-0.06 0.02,-0.05 0.03,-0.04 0.03,-0.05 0.03,-0.04 0.03,-0.05 0.03,-0.04 0.04,-0.04 0.03,-0.03 0.04,-0.04 0.03,-0.03 0.04,-0.03 0.04,-0.03 0.04,-0.02 0.05,-0.03 0.04,-0.02 0.05,-0.01 0.05,-0.02 0.05,-0.01 0.05,-0.01 0.06,-0.01 h 0.05 0.06 c 0.55,0 1,0.45 1,1 0,0.09 0,0.18 -0.25,0.79 l -17.05,46.83 c -0.29,0.84 -0.43,1.19 -1.09,1.19 -0.55,0 -1,-0.44 -1,-0.99 0,-0.11 0,-0.2 0.25,-0.79 z"
           inkscape:connector-curvature="0"
           style="fill:#000000;stroke-width:0" /><path
           id="path5934"
           d="m 672.87,410.09 -0.04,-0.18 -0.05,-0.17 -0.04,-0.16 -0.05,-0.15 -0.04,-0.15 -0.05,-0.13 -0.04,-0.13 -0.05,-0.12 -0.06,-0.11 -0.06,-0.11 -0.06,-0.1 -0.07,-0.09 -0.08,-0.09 -0.09,-0.07 -0.09,-0.08 -0.11,-0.06 -0.11,-0.07 -0.12,-0.05 -0.14,-0.05 -0.15,-0.05 -0.16,-0.04 -0.09,-0.02 -0.09,-0.01 -0.09,-0.02 -0.1,-0.02 -0.1,-0.01 -0.1,-0.01 -0.11,-0.01 -0.11,-0.02 -0.12,-0.01 -0.12,-0.01 h -0.13 l -0.13,-0.01 -0.14,-0.01 h -0.14 l -0.14,-0.01 h -0.15 l -0.16,-0.01 h -0.16 -0.16 -0.17 -0.18 -0.18 c -0.84,0 -1.34,0 -1.34,-1 0,-0.55 0.45,-0.55 1.34,-0.55 h 17.78 c 7.88,0 13.75,5.87 13.75,10.76 0,3.58 -2.89,6.47 -7.72,7.02 5.19,0.95 10.42,4.64 10.42,9.38 0,3.68 -3.29,6.87 -9.28,6.87 l -0.69,-1.55 c 4.38,0 5.43,-2.93 5.43,-5.12 0,-4.39 -4.28,-9.13 -10.36,-9.13 h -7.27 l -0.3,-1.09 h 9.41 c 4.78,0 5.74,-3.69 5.74,-5.83 0,-4.94 -4.44,-9.76 -10.32,-9.76 h -6.78 c -0.68,0 -0.8,0 -1.09,0.04 -0.5,0.05 -0.64,0.1 -0.64,0.5 0,0.14 0,0.25 0.25,1.14 l 3.43,13.91 0.3,1.09 3.08,12.36 c 0.45,1.74 0.55,1.89 2.7,1.89 h 6.42 l 0.69,1.55 h -16.73 c -0.94,0 -1.44,0 -1.44,-1 0,-0.55 0.44,-0.55 1.39,-0.55 0.09,0 1.05,0 1.89,-0.09 0.89,-0.11 1.35,-0.16 1.35,-0.8 0,-0.2 -0.05,-0.36 -0.21,-0.95 z"
           inkscape:connector-curvature="0"
           style="fill:#000000;stroke-width:0" /><path
           id="path5936"
           d="m 708.5,406.53 0.12,-0.05 0.13,-0.04 0.12,-0.04 0.12,-0.04 0.11,-0.04 0.12,-0.03 0.11,-0.03 0.12,-0.03 0.11,-0.03 0.11,-0.02 0.22,-0.04 0.21,-0.04 0.21,-0.02 0.21,-0.02 0.2,-0.02 0.2,-0.01 0.2,-0.01 h 0.19 l 0.2,-0.01 h 0.38 v 0.97 c -0.53,0 -1.23,0 -1.86,0.14 v 0 c 0.39,0.11 1.08,0.28 2.13,0.28 0.76,0 0.95,-0.03 1.64,-0.17 -0.52,-0.2 -0.63,-0.25 -1.91,-0.25 v -0.97 c 1.11,0 3.16,0 3.16,1.28 0,0.96 -1.32,1.08 -2.82,1.08 -0.48,0 -1.98,0 -3.7,-0.69 -0.8,0.38 -1.31,1.05 -1.31,1.82 0,1.87 3.37,3.06 6.89,3.06 0.56,0 2.06,0 3.62,-0.97 0.22,-0.14 0.43,-0.31 0.71,-0.31 0.48,0 1.11,0.51 1.11,1.11 0,0.7 -1.14,1.18 -1.82,1.47 -1.5,0.62 -2.71,0.62 -3.23,0.62 -4.25,0 -8.47,-2.23 -8.47,-5.02 0,-1.43 1.33,-2.34 1.36,-2.37 -1.3,-0.77 -3.03,-2.3 -3.03,-4.5 0,-2.53 2.5,-4.53 6.37,-4.53 5.3,0 7.18,3.14 7.18,3.7 0,0.24 -0.21,0.45 -0.49,0.45 -0.2,0 -0.31,-0.14 -0.42,-0.28 -0.86,-1.36 -2.02,-1.95 -5.7,-1.95 -0.88,0 -2.52,0 -3.77,0.48 -1.39,0.54 -1.98,1.47 -1.98,2.35 0,0.8 0.59,2.5 2.95,3.72 z"
           inkscape:connector-curvature="0"
           style="fill:#000000;stroke-width:0" /><path
           id="path5938"
           d="m 740.45,394.25 -0.01,0.02 v 0.03 0.01 0.02 0.01 l -0.01,0.02 v 0.01 l -0.01,0.02 -0.01,0.02 -0.01,0.02 -0.01,0.02 -0.02,0.03 -0.01,0.02 -0.02,0.03 -0.02,0.03 -0.03,0.03 -0.02,0.03 -0.03,0.04 -0.02,0.02 -0.01,0.02 -0.02,0.02 -0.02,0.02 -0.02,0.02 -0.02,0.03 -0.02,0.02 -0.02,0.02 -0.02,0.03 -0.03,0.02 -0.02,0.03 -0.03,0.03 -0.02,0.03 -0.03,0.03 -0.03,0.03 -0.03,0.03 -0.03,0.03 -0.03,0.03 -0.04,0.04 -0.03,0.03 -0.03,0.04 -0.04,0.03 -0.04,0.04 -0.04,0.04 c -6.22,6.28 -7.81,15.69 -7.81,23.31 0,8.67 1.89,17.35 8.01,23.56 0.65,0.61 0.65,0.71 0.65,0.86 0,0.35 -0.19,0.49 -0.49,0.49 -0.5,0 -4.98,-3.38 -7.92,-9.7 -2.55,-5.49 -3.14,-11.02 -3.14,-15.21 0,-3.89 0.55,-9.9 3.28,-15.54 2.98,-6.13 7.28,-9.36 7.78,-9.36 0.3,0 0.49,0.14 0.49,0.5 z"
           inkscape:connector-curvature="0"
           style="fill:#000000;stroke-width:0" /><path
           id="path5940"
           d="m 760.51,418.45 5.83,6.48 c 0.66,0.71 0.95,1.05 5.09,1.05 v 2.34 c -1.75,-0.11 -4.34,-0.15 -4.59,-0.15 -1.25,0 -3.74,0.11 -5.12,0.15 v -2.34 c 0.68,0 1.29,-0.11 1.88,-0.45 -0.2,-0.3 -0.2,-0.39 -0.4,-0.6 l -4.17,-4.68 -4.89,5.73 h 2 v 2.34 c -1.3,-0.04 -4.44,-0.15 -6.04,-0.15 -1.59,0 -3.84,0.11 -5.48,0.15 v -2.34 h 3.53 l 7.78,-9.17 -6.53,-7.33 c -0.84,-0.94 -2.64,-0.94 -5.03,-0.94 v -2.34 c 1.75,0.09 4.35,0.16 4.58,0.16 1.25,0 4.14,-0.11 5.14,-0.16 v 2.34 c -0.89,0 -1.84,0.25 -1.84,0.55 0,0.05 0,0.09 0.34,0.5 l 4.84,5.42 5.47,-6.47 h -1.93 v -2.34 c 1.29,0.05 4.32,0.16 5.98,0.16 1.59,0 3.83,-0.11 5.47,-0.16 v 2.34 h -3.53 z"
           inkscape:connector-curvature="0"
           style="fill:#000000;stroke-width:0" /><path
           id="path5942"
           d="m 787.91,418.65 -0.01,0.37 v 0.39 l -0.01,0.39 -0.01,0.41 -0.04,0.84 -0.06,0.88 -0.08,0.92 -0.11,0.95 -0.14,0.97 -0.16,1.01 -0.2,1.02 -0.23,1.03 -0.26,1.05 -0.31,1.06 -0.35,1.07 -0.39,1.07 -0.21,0.53 -0.23,0.53 -0.24,0.53 -0.25,0.53 c -2.98,6.12 -7.26,9.36 -7.76,9.36 -0.3,0 -0.5,-0.19 -0.5,-0.49 0,-0.15 0,-0.25 0.94,-1.15 4.89,-4.92 7.73,-12.85 7.73,-23.27 0,-8.51 -1.84,-17.28 -8.03,-23.56 -0.64,-0.59 -0.64,-0.7 -0.64,-0.84 0,-0.3 0.2,-0.5 0.5,-0.5 0.5,0 4.97,3.39 7.92,9.71 2.53,5.47 3.13,11 3.13,15.19 z"
           inkscape:connector-curvature="0"
           style="fill:#000000;stroke-width:0" /><path
           id="path5944"
           d="m 807.22,418.65 v 0.37 0.39 l -0.01,0.39 -0.02,0.41 -0.04,0.84 -0.06,0.88 -0.08,0.92 -0.1,0.95 -0.14,0.97 -0.16,1.01 -0.2,1.02 -0.23,1.03 -0.27,1.05 -0.3,1.06 -0.35,1.07 -0.39,1.07 -0.22,0.53 -0.22,0.53 -0.24,0.53 -0.25,0.53 c -2.98,6.12 -7.26,9.36 -7.76,9.36 -0.3,0 -0.5,-0.19 -0.5,-0.49 0,-0.15 0,-0.25 0.93,-1.15 4.89,-4.92 7.74,-12.85 7.74,-23.27 0,-8.51 -1.85,-17.28 -8.03,-23.56 -0.64,-0.59 -0.64,-0.7 -0.64,-0.84 0,-0.3 0.2,-0.5 0.5,-0.5 0.5,0 4.97,3.39 7.92,9.71 2.53,5.47 3.12,11 3.12,15.19 z"
           inkscape:connector-curvature="0"
           style="fill:#000000;stroke-width:0" /></g>    </g>
    <circle
       style="opacity:1;fill:#000000;fill-opacity:1;stroke:none;stroke-width:0.279578;stroke-opacity:0.66436002"
       id="path4554-6"
       cx="58.539242"
       cy="283.7211"
       r="0.29954785"
       inkscape:transform-center-x="-1.6300223"
       inkscape:transform-center-y="-0.86225857" />
    <path
       style="opacity:1;fill:#000000;stroke:#000000;stroke-width:0.16501224;stroke-opacity:1;fill-opacity:0.08650519"
       d="m 77.640291,274.99749 a 19.199442,8.0718029 0 0 0 -18.009754,5.30407 3.5907736,3.5907736 0 0 1 2.456696,3.40341 3.5907736,3.5907736 0 0 1 -1.600417,2.98586 19.199442,8.0718029 0 0 0 17.153475,4.45038 19.199442,8.0718029 0 0 0 19.199344,-8.07186 19.199442,8.0718029 0 0 0 -19.199344,-8.07186 z"
       id="path3725-2"
       inkscape:connector-curvature="0" />
    <circle
       style="opacity:1;fill:#000000;fill-opacity:1;stroke:none;stroke-width:0.279578;stroke-opacity:0.66436002"
       id="path4554-6-1"
       cx="102.05873"
       cy="283.72058"
       r="0.29954785"
       inkscape:transform-center-x="-1.6300223"
       inkscape:transform-center-y="-0.86225857" />
    <path
       inkscape:connector-curvature="0"
       style="opacity:1;fill:#000000;stroke:#000000;stroke-width:0.16501224;stroke-opacity:1;fill-opacity:0.08650519"
       d="m 121.15978,274.99694 c -8.05547,0.005 -15.24762,2.1227 -18.00976,5.30406 l 0.85628,6.38928 c 3.25686,2.72751 9.89426,4.44955 17.15348,4.45037 10.60357,-2e-5 19.19941,-3.61392 19.19934,-8.07186 6e-5,-4.45794 -8.59578,-8.07183 -19.19934,-8.07185 z"
       id="path3725-2-2"
       sodipodi:nodetypes="cccccc" />
  </g>
</svg>
